<?xml version="1.0" encoding="UTF-8"?>
<svg id="_レイヤー_2" data-name="レイヤー_2" xmlns="http://www.w3.org/2000/svg" viewBox="0 0 222.85 53.51">
  <defs>
    <style>
      .cls-1 {
        fill: #6db2e3;
      }

      .cls-2 {
        fill: #90c43e;
      }

      .cls-3 {
        fill: #fff;
      }

      .cls-4 {
        fill: #8dc21f;
      }
    </style>
  </defs>
  <g id="logo">
    <g id="logoC3">
      <path class="cls-4" d="M63.03,48.35c-.59,0-1-.19-1.22-.56-.22-.37-.33-.84-.33-1.4v-18.12c-.15.18-.35.54-.61,1.08s-.55,1.1-.87,1.69c-.32.59-.65,1.1-.98,1.54-.33.44-.64.65-.91.65-.54,0-.91-.17-1.09-.52-.19-.34-.28-.76-.28-1.25,0-.28.1-.64.3-1.08.2-.43.41-.86.65-1.29.23-.42.41-.75.54-.98,1.29-2.28,2.39-4.59,3.3-6.95.91-2.35,1.74-4.79,2.49-7.29.12-.43.31-.83.56-1.17.25-.35.63-.52,1.15-.52.45,0,.83.1,1.15.31.32.2.48.56.48,1.07,0,.1-.08.41-.24.92-.16.51-.37,1.11-.63,1.8-.26.69-.52,1.38-.78,2.07-.26.69-.49,1.3-.7,1.82-.21.53-.34.86-.39,1.02v25.18c0,.56-.11,1.03-.33,1.4s-.63.56-1.22.56ZM71.01,46.59c-.54,0-1-.11-1.37-.35-.37-.23-.56-.65-.56-1.27s.19-1.07.56-1.31c.37-.23.83-.34,1.37-.34h8.49v-10.56h-3.71c-.54,0-.99-.12-1.34-.36-.35-.24-.54-.66-.59-1.25-.2.38-.5.95-.91,1.69-.41.74-.88,1.55-1.43,2.44-.54.88-1.11,1.73-1.69,2.53-.58.81-1.14,1.47-1.69,2-.54.53-1.01.79-1.41.79-.54,0-.95-.16-1.22-.48-.27-.32-.41-.76-.41-1.32,0-.31.09-.59.26-.86.17-.27.35-.5.52-.71,2.03-2.28,3.68-4.66,4.97-7.14,1.29-2.48,2.34-5.21,3.15-8.18h-5.6c-.54,0-1-.12-1.37-.36-.37-.24-.56-.68-.56-1.32s.19-1.08.56-1.32c.37-.24.83-.36,1.37-.36h6.45c.15-.66.29-1.34.43-2.02.14-.68.25-1.36.35-2.05.07-.54.23-1.05.48-1.54.25-.49.68-.73,1.3-.73,1.14,0,1.71.55,1.71,1.65,0,.72-.11,1.5-.33,2.34-.22.84-.42,1.63-.59,2.34h11.39c.57,0,1.04.12,1.41.36.37.24.56.69.56,1.32s-.19,1.08-.56,1.32c-.37.24-.84.36-1.41.36h-12.24c-.4,1.33-.83,2.66-1.3,3.99-.47,1.33-.99,2.64-1.56,3.92.2-.13.41-.21.63-.25.22-.04.45-.06.67-.06h12.13c.54,0,1.01.12,1.39.35.38.23.58.67.58,1.31s-.19,1.04-.58,1.27c-.38.23-.85.35-1.39.35h-5.16v10.56h6.97c.57,0,1.03.11,1.39.34.36.23.54.67.54,1.31s-.19,1.04-.56,1.27c-.37.23-.83.35-1.37.35h-18.73Z"/>
      <path class="cls-4" d="M109.38,48.12c-.42,0-.89.01-1.41.04-.52.03-.97-.06-1.35-.25-.38-.19-.57-.59-.57-1.21,0-.51.12-.86.37-1.04.25-.18.54-.28.89-.29.35-.01.7-.03,1.06-.04.36-.01.66-.1.91-.27.25-.17.37-.49.37-.98v-6.6h-4.67c-.03.36-.08.94-.17,1.75-.09.81-.21,1.7-.37,2.69-.16.99-.37,1.93-.61,2.84-.25.91-.54,1.66-.87,2.25-.33.59-.71.88-1.13.88-.94,0-1.41-.46-1.41-1.38,0-.26.04-.51.11-.75.07-.24.16-.48.26-.71.45-1.05.79-2.19,1.04-3.44.25-1.24.42-2.5.52-3.78.1-1.28.15-2.48.15-3.61l.11-8.56c0-.59,0-1.16-.02-1.71-.01-.55.04-1.05.15-1.5s.35-.8.72-1.06c.37-.26.95-.38,1.74-.38h4.27c1.85,0,2.78.97,2.78,2.92v21.3c0,1.92-.95,2.88-2.86,2.88ZM111.76,20.64c-.59,0-.99-.13-1.19-.4-.2-.27-.3-.61-.32-1.02-.01-.41-.02-.85-.02-1.31h-8.01c-.47,0-.85-.1-1.15-.31-.3-.2-.45-.58-.45-1.11s.15-.91.45-1.11c.3-.2.68-.31,1.15-.31h8.01v-1.36c0-.45.1-.81.32-1.09.21-.28.61-.42,1.21-.42s.99.14,1.19.42c.2.28.3.65.3,1.09v1.36h9.01v-1.36c0-.45.1-.81.3-1.09.2-.28.59-.42,1.19-.42s1.03.14,1.22.42c.2.28.3.65.3,1.09v1.36h8.27c.47,0,.85.1,1.15.31.3.2.45.58.45,1.11s-.15.91-.45,1.11c-.3.21-.68.31-1.15.31h-8.27c0,.46,0,.9-.02,1.31-.01.41-.12.75-.32,1.02-.2.27-.59.4-1.19.4s-.96-.13-1.17-.4-.32-.61-.32-1.04v-1.29h-9.01v1.29c0,.42-.1.77-.3,1.04-.2.27-.59.4-1.19.4ZM105.04,35.03h4.6v-4.57h-4.56l-.04,4.57ZM105.08,27.97h4.56v-3.26c0-.74-.36-1.11-1.08-1.11h-2.41c-.35,0-.61.13-.78.38-.17.26-.26.55-.26.88l-.04,3.11ZM134.01,40.26c-.35,0-.78-.18-1.3-.54-.52-.36-1.08-.82-1.67-1.38-.59-.56-1.17-1.16-1.72-1.8-.56-.64-1.05-1.24-1.47-1.8-.42-.56-.72-1.01-.89-1.34h-7.27c-.22.38-.58.93-1.08,1.65-.49.72-1.06,1.45-1.69,2.21-.63.76-1.24,1.4-1.82,1.92-.58.53-1.07.79-1.47.79-.47,0-.79-.15-.96-.44-.17-.29-.26-.65-.26-1.06,0-.23.07-.44.22-.63.15-.19.3-.35.45-.48.69-.59,1.35-1.2,1.97-1.84.62-.64,1.17-1.34,1.67-2.11h-2.63c-.89,0-1.34-.42-1.34-1.27,0-.43.12-.75.37-.94.25-.19.57-.29.96-.29h4.04l1.34-3.19h-4.6c-.4,0-.72-.1-.98-.29s-.39-.51-.39-.94c0-.46.13-.79.39-.98s.59-.29.98-.29h5.3l.67-3.11c.1-.41.25-.73.46-.96.21-.23.52-.35.95-.35.4,0,.74.08,1.02.25.28.17.43.48.43.94,0,.49-.09,1.02-.26,1.59-.17.58-.32,1.12-.45,1.63h9.09c.89,0,1.34.42,1.34,1.27,0,.44-.12.75-.37.94-.25.19-.57.29-.96.29h-4.86l1.22,3.19h5.34c.89,0,1.34.42,1.34,1.27,0,.44-.12.75-.37.94-.25.19-.57.29-.96.29h-3.82c.45.77,1.05,1.47,1.82,2.11.77.64,1.52,1.18,2.26,1.61.27.18.56.4.85.65.3.26.45.56.45.92,0,.46-.1.84-.3,1.13-.2.29-.54.44-1.04.44ZM114.35,46.17c-.4,0-.69-.12-.87-.36-.19-.24-.28-.57-.28-.98,0-.31.22-.6.67-.88.45-.28.98-.53,1.59-.75.62-.22,1.18-.4,1.69-.54.51-.14.83-.24.98-.29.05-.03.21-.08.48-.17.27-.09.67-.24,1.19-.44.74,0,1.11.42,1.11,1.27,0,.28-.2.57-.59.86-.4.29-.9.58-1.5.84-.61.27-1.22.51-1.85.73-.63.22-1.19.39-1.67.52s-.8.19-.95.19ZM116.87,24.63c-.27,0-.6-.18-.98-.54-.38-.36-.72-.77-1.02-1.23-.3-.46-.45-.82-.45-1.07,0-.46.14-.77.41-.94.27-.17.61-.25,1-.25.32,0,.67.16,1.06.48.38.32.71.69.98,1.09.27.41.41.78.41,1.11,0,.46-.13.8-.39,1.02-.26.22-.6.33-1.02.33ZM118.99,40.75c-.22,0-.53-.13-.93-.38-.4-.26-.75-.56-1.08-.9-.32-.35-.48-.65-.48-.9,0-.43.12-.75.37-.94.25-.19.57-.29.96-.29.27,0,.61.11,1.02.33.41.22.77.49,1.08.83.31.33.46.65.46.96,0,.46-.13.79-.39,1-.26.21-.6.31-1.02.31ZM120.18,48.35c-.45,0-.83-.1-1.15-.31-.32-.21-.48-.56-.48-1.08,0-.54.12-.9.35-1.07.23-.18.52-.28.87-.29.35-.01.69-.02,1.02-.02s.62-.07.85-.21c.23-.14.35-.45.35-.94v-8.6c0-.46.11-.83.32-1.11.21-.28.55-.42,1.02-.42.49,0,.84.14,1.04.42.2.28.3.65.3,1.11v9.6c0,1-.27,1.73-.82,2.21-.54.47-1.29.71-2.23.71h-1.45ZM120.95,30.89h4.93l-1-3.19h-2.63s-.1.19-.22.48c-.12.29-.26.63-.41,1.02s-.28.74-.41,1.08c-.12.33-.21.54-.26.61ZM133.12,47.36c-.3,0-.61-.1-.95-.31s-.64-.37-.91-.5l-4.34-2.34c-.22-.13-.46-.27-.71-.42-.25-.15-.37-.38-.37-.69,0-.92.46-1.38,1.37-1.38.22,0,.43.04.63.11.2.08.38.17.56.27l4.71,2.27c.27.13.56.31.85.56.3.24.45.54.45.9,0,.46-.1.83-.3,1.11-.2.28-.53.42-1,.42ZM127.41,40.79c-.87,0-1.3-.42-1.3-1.27,0-.26.15-.58.45-.96.3-.38.64-.74,1.02-1.06.38-.32.69-.48.91-.48.86,0,1.3.42,1.3,1.27,0,.28-.14.62-.43,1.02-.28.4-.61.74-.98,1.04-.37.29-.69.44-.96.44ZM128.34,24.67c-.4,0-.73-.09-1-.27-.27-.18-.41-.5-.41-.96,0-.28.17-.66.5-1.13.33-.47.71-.91,1.13-1.31.42-.4.77-.59,1.04-.59.4,0,.73.09,1,.27.27.18.41.5.41.96,0,.31-.16.7-.48,1.19-.32.49-.69.92-1.09,1.29s-.77.56-1.09.56Z"/>
      <path class="cls-4" d="M149.91,46.7c-1.24,0-2.19-.31-2.86-.92-.67-.61-1-1.59-1-2.92v-25.11c0-2.53,1.26-3.8,3.78-3.8h26.89c.52,0,.96.11,1.32.34.36.23.54.64.54,1.23s-.19.99-.56,1.21c-.37.22-.8.33-1.3.33h-25.56c-1.24,0-1.85.64-1.85,1.92v22.69c0,1.28.62,1.92,1.85,1.92h26.26c.49,0,.93.11,1.3.33.37.22.56.62.56,1.21s-.18,1-.54,1.23c-.36.23-.8.34-1.32.34h-27.52ZM152.13,42.64c-.52,0-.89-.16-1.11-.48-.22-.32-.33-.72-.33-1.21,0-.56.25-.97.76-1.23.51-.26.96-.45,1.35-.58,1.93-.59,3.65-1.46,5.17-2.61,1.52-1.15,2.64-2.74,3.36-4.76h-8.79c-.47,0-.87-.1-1.21-.31s-.5-.59-.5-1.15.17-.95.5-1.15.74-.31,1.21-.31h9.42c.1-.82.16-1.64.19-2.46.02-.82.04-1.62.04-2.42h-6.71c-.12.21-.37.57-.72,1.09-.36.53-.74,1.01-1.13,1.44-.4.44-.74.65-1.04.65-.96,0-1.45-.49-1.45-1.46,0-.23.06-.45.19-.67.12-.22.25-.42.37-.6.59-.84,1.17-1.69,1.74-2.55.57-.86,1.09-1.76,1.56-2.71.2-.38.44-.77.72-1.17.28-.4.66-.6,1.13-.6.4,0,.73.09,1,.27.27.18.41.5.41.96,0,.15-.07.4-.22.73-.15.33-.31.66-.48.98-.17.32-.31.56-.41.71h16.58c.49,0,.88.11,1.17.34.28.23.43.6.43,1.11s-.14.88-.43,1.11c-.28.23-.67.34-1.17.34h-8.61c-.03.79-.06,1.6-.09,2.42-.04.82-.12,1.64-.24,2.46h11.09c.47,0,.85.12,1.13.35.28.23.43.6.43,1.11s-.14.88-.43,1.11c-.28.23-.66.35-1.13.35h-9.87c.99,2,2.31,3.54,3.95,4.63,1.64,1.09,3.47,1.94,5.47,2.55.42.13.83.32,1.22.58.4.26.59.65.59,1.19,0,.49-.11.89-.32,1.21-.21.32-.57.48-1.09.48-1.06,0-2.2-.31-3.41-.92-1.21-.61-2.39-1.41-3.52-2.38-1.14-.97-2.15-2.01-3.04-3.11-.89-1.1-1.55-2.14-1.97-3.11-.62,1.95-1.6,3.58-2.93,4.91-1.34,1.33-2.88,2.44-4.64,3.34-.35.18-.77.38-1.28.61-.51.23-1.02.44-1.54.61-.52.18-.98.27-1.37.27Z"/>
      <path class="cls-4" d="M191.03,48.35c-.54,0-.92-.18-1.13-.54s-.32-.79-.32-1.31v-29.6c0-2.15,1.04-3.22,3.12-3.22h4.41c.47,0,.95.05,1.45.15.49.1.92.31,1.26.61.35.31.52.77.52,1.38,0,.67-.17,1.48-.5,2.46s-.73,1.97-1.19,2.99c-.46,1.02-.85,1.98-1.19,2.88-.33.9-.5,1.6-.5,2.11,0,.26.15.61.46,1.06.31.45.66,1,1.06,1.65.39.65.75,1.43,1.06,2.34.31.91.46,1.95.46,3.13,0,1.82-.4,3.27-1.2,4.36-.8,1.09-2.15,1.63-4.02,1.63-1.19,0-1.78-.63-1.78-1.88,0-.64.14-1.06.41-1.27.27-.2.61-.32,1.02-.35.41-.03.81-.08,1.22-.17.41-.09.75-.33,1.02-.73s.41-1.07.41-2.02c0-1.1-.15-2.05-.44-2.86-.3-.81-.63-1.51-1-2.11-.37-.6-.71-1.14-1-1.61-.3-.47-.45-.9-.45-1.29s.14-.97.41-1.77c.27-.79.58-1.65.93-2.57s.65-1.77.93-2.55c.27-.78.41-1.36.41-1.75,0-.33-.11-.55-.33-.65-.22-.1-.47-.15-.74-.15h-2c-.37,0-.67.11-.91.34-.24.23-.35.54-.35.92v28.52c0,.51-.11.95-.32,1.31s-.6.54-1.17.54ZM199.41,48.09c-.49,0-.86-.16-1.09-.48-.23-.32-.35-.72-.35-1.21,0-.46.16-.83.48-1.09s.65-.49,1-.67c1.66-.79,2.92-1.69,3.78-2.71.86-1.01,1.46-2.19,1.78-3.53.32-1.34.49-2.91.52-4.7h-3.38c-.47,0-.87-.1-1.2-.31-.34-.2-.5-.59-.5-1.15s.17-.94.5-1.13c.33-.19.74-.29,1.2-.29h18.32c.49,0,.91.1,1.24.31s.5.59.5,1.15-.17.94-.52,1.13c-.35.19-.76.29-1.22.29h-5.41v9.37c0,.61.22,1.01.67,1.19s.9.27,1.37.27c.25,0,.59-.01,1.02-.04.43-.03.75-.1.95-.23.3-.2.48-.52.56-.96.07-.43.14-.88.18-1.34.05-.46.18-.85.39-1.17s.59-.48,1.13-.48c.47,0,.84.11,1.11.34.27.23.41.6.41,1.11,0,1.66-.19,2.91-.56,3.72-.37.82-.99,1.35-1.85,1.59-.86.24-2.05.36-3.56.36-.47,0-.98,0-1.54-.02-.56-.01-1.09-.1-1.59-.25-.51-.15-.92-.42-1.22-.79-.31-.37-.46-.9-.46-1.59v-11.09h-3.41c-.05,1.61-.22,3.15-.52,4.61s-.79,2.82-1.46,4.09c-.68,1.27-1.66,2.44-2.95,3.51-.35.28-.77.59-1.26.94-.49.34-1.01.64-1.54.88-.53.24-1.03.36-1.5.36ZM201.67,24.71c-.52,0-.88-.16-1.09-.48-.21-.32-.32-.72-.32-1.21v-3.53c0-2.02.98-3.03,2.93-3.03h5.86c0-.36-.01-.78-.04-1.27-.02-.49,0-.96.06-1.42.06-.46.22-.84.46-1.15s.64-.46,1.19-.46.94.15,1.19.46.4.69.46,1.15c.06.46.08.93.05,1.42-.02.49-.04.91-.04,1.27h6.23c1.04,0,1.86.19,2.47.58.6.38.91,1.18.91,2.38l-.04,3.49c0,.51-.11.94-.32,1.29-.21.34-.6.52-1.17.52-.62,0-1.03-.18-1.22-.54-.2-.36-.29-.81-.28-1.34s.03-1.07.06-1.59-.04-.97-.2-1.32c-.16-.36-.53-.54-1.09-.54h-13.35c-.57,0-.93.18-1.09.54-.16.36-.23.8-.2,1.32s.04,1.06.06,1.59c.01.54-.07.99-.26,1.34-.19.36-.59.54-1.2.54ZM204.9,26.74c-.47,0-.84-.11-1.11-.34-.27-.23-.41-.59-.41-1.08,0-.51.14-.88.41-1.09.27-.22.64-.33,1.11-.33h12.42c.47,0,.85.11,1.13.33.28.22.43.58.43,1.09s-.14.88-.43,1.09c-.28.22-.66.33-1.13.33h-12.42Z"/>
      <path class="cls-4" d="M5.15,25.82l18.09-14.68,18.09,14.68c1.36,1.1,3.34.89,4.44-.46,1.1-1.35.89-3.34-.46-4.44L25.24,4.62c-1.16-.94-2.82-.94-3.98,0L1.17,20.92c-1.36,1.1-1.56,3.09-.46,4.44,1.1,1.36,3.09,1.56,4.44.46Z"/>
      <path class="cls-4" d="M2.15,48.23c3.32,1.82,10.68,5.28,20.64,5.28.16,0,.31,0,.47,0,10.28-.11,17.78-3.87,21.11-5.81.69-.4.92-1.28.52-1.96s-1.28-.92-1.96-.52c-3.1,1.8-10.12,5.31-19.7,5.42-.15,0-.29,0-.44,0-9.29,0-16.17-3.23-19.26-4.93-.7-.38-1.57-.13-1.95.57s-.13,1.57.57,1.95Z"/>
      <path class="cls-4" d="M8.21,20.35v28.91c0,.79.64,1.44,1.44,1.44s1.44-.64,1.44-1.44v-28.91c0-.79-.64-1.44-1.44-1.44s-1.44.64-1.44,1.44"/>
      <path class="cls-4" d="M35.06,20.35v10.7c0,.79.64,1.44,1.44,1.44s1.44-.64,1.44-1.44v-10.7c0-.79-.64-1.44-1.44-1.44s-1.44.64-1.44,1.44"/>
      <path class="cls-4" d="M30.51.06c-2.08,6.49-7.1,4.61-7.1,4.61h0S23.74-.68,30.52.07"/>
      <path class="cls-4" d="M16.28.15c6.76-.9,7.2,4.44,7.2,4.44h0s-4.97,2-7.2-4.45"/>
      <path class="cls-4" d="M24.23,30.85c11.47-1.46,12.17,7.6,12.17,7.6h0s-8.46,3.33-12.16-7.62"/>
      <path class="cls-4" d="M48.75,30.99c-11.43-1.74-12.35,7.3-12.35,7.3h0s8.37,3.54,12.34-7.32"/>
      <path class="cls-1" d="M21.17,36.56v8.97c0,1.11.9,2.01,2.01,2.01s2.01-.9,2.01-2.01v-8.97c0-1.11-.9-2.01-2.01-2.01s-2.01.9-2.01,2.01"/>
      <path class="cls-1" d="M27.55,39.17l-8.67.16c-1.11.02-1.99.94-1.97,2.05.02,1.11.94,1.99,2.05,1.97l8.67-.16c1.11-.02,1.99-.94,1.97-2.05-.02-1.11-.94-1.99-2.05-1.97"/>
      <circle class="cls-2" cx="16.6" cy="26.17" r="3.03"/>
      <circle class="cls-2" cx="30" cy="25.66" r="3.03"/>
      <polyline class="cls-3" points="16.31 23.14 16.31 29.2 16.89 29.2 16.89 23.14"/>
      <polyline class="cls-3" points="13.57 26.75 19.64 26.66 19.63 26.08 13.56 26.18"/>
      <polyline class="cls-3" points="29.71 22.63 29.71 28.69 30.29 28.69 30.29 22.63"/>
      <polyline class="cls-3" points="26.97 25.95 33.03 25.95 33.03 25.37 26.97 25.37"/>
      <path class="cls-4" d="M37.05,38.24l.86,11.02c.1,1.9-2.68,2.12-2.87.22,0-.07,0-.15,0-.22l.86-11.02c.06-.7,1.1-.7,1.15,0Z"/>
    </g>
  </g>
</svg>