<?xml version="1.0" encoding="UTF-8"?>
<svg id="_レイヤー_2" data-name="レイヤー_2" xmlns="http://www.w3.org/2000/svg" viewBox="0 0 48.75 53.51">
  <defs>
    <style>
      .cls-1 {
        fill: #6db2e3;
      }

      .cls-2 {
        fill: #90c43e;
      }

      .cls-3 {
        fill: #fff;
      }

      .cls-4 {
        fill: #8dc21f;
      }
    </style>
  </defs>
  <g id="logo">
    <g id="logoC3">
      <path class="cls-4" d="M5.15,25.82l18.09-14.68,18.09,14.68c1.36,1.1,3.34.89,4.44-.46,1.1-1.35.89-3.34-.46-4.44L25.24,4.62c-1.16-.94-2.82-.94-3.98,0L1.17,20.92c-1.36,1.1-1.56,3.09-.46,4.44,1.1,1.36,3.09,1.56,4.44.46Z"/>
      <path class="cls-4" d="M2.15,48.23c3.32,1.82,10.68,5.28,20.64,5.28.16,0,.31,0,.47,0,10.28-.11,17.78-3.87,21.11-5.81.69-.4.92-1.28.52-1.96s-1.28-.92-1.96-.52c-3.1,1.8-10.12,5.31-19.7,5.42-.15,0-.29,0-.44,0-9.29,0-16.17-3.23-19.26-4.93-.7-.38-1.57-.13-1.95.57s-.13,1.57.57,1.95Z"/>
      <path class="cls-4" d="M8.21,20.35v28.91c0,.79.64,1.44,1.44,1.44s1.44-.64,1.44-1.44v-28.91c0-.79-.64-1.44-1.44-1.44s-1.44.64-1.44,1.44"/>
      <path class="cls-4" d="M35.06,20.35v10.7c0,.79.64,1.44,1.44,1.44s1.44-.64,1.44-1.44v-10.7c0-.79-.64-1.44-1.44-1.44s-1.44.64-1.44,1.44"/>
      <path class="cls-4" d="M30.51.06c-2.08,6.49-7.1,4.61-7.1,4.61h0S23.74-.68,30.52.07"/>
      <path class="cls-4" d="M16.28.15c6.76-.9,7.2,4.44,7.2,4.44h0s-4.97,2-7.2-4.45"/>
      <path class="cls-4" d="M24.23,30.85c11.47-1.46,12.17,7.6,12.17,7.6h0s-8.46,3.33-12.16-7.62"/>
      <path class="cls-4" d="M48.75,30.99c-11.43-1.74-12.35,7.3-12.35,7.3h0s8.37,3.54,12.34-7.32"/>
      <path class="cls-1" d="M21.17,36.56v8.97c0,1.11.9,2.01,2.01,2.01s2.01-.9,2.01-2.01v-8.97c0-1.11-.9-2.01-2.01-2.01s-2.01.9-2.01,2.01"/>
      <path class="cls-1" d="M27.55,39.17l-8.67.16c-1.11.02-1.99.94-1.97,2.05.02,1.11.94,1.99,2.05,1.97l8.67-.16c1.11-.02,1.99-.94,1.97-2.05-.02-1.11-.94-1.99-2.05-1.97"/>
      <circle class="cls-2" cx="16.6" cy="26.17" r="3.03"/>
      <circle class="cls-2" cx="30" cy="25.66" r="3.03"/>
      <polyline class="cls-3" points="16.31 23.14 16.31 29.2 16.89 29.2 16.89 23.14"/>
      <polyline class="cls-3" points="13.57 26.75 19.64 26.66 19.63 26.08 13.56 26.18"/>
      <polyline class="cls-3" points="29.71 22.63 29.71 28.69 30.29 28.69 30.29 22.63"/>
      <polyline class="cls-3" points="26.97 25.95 33.03 25.95 33.03 25.37 26.97 25.37"/>
      <path class="cls-4" d="M37.05,38.24l.86,11.02c.1,1.9-2.68,2.12-2.87.22,0-.07,0-.15,0-.22l.86-11.02c.06-.7,1.1-.7,1.15,0Z"/>
    </g>
  </g>
</svg>