<?xml version="1.0" encoding="UTF-8"?>
<svg id="_レイヤー_2" data-name="レイヤー_2" xmlns="http://www.w3.org/2000/svg" viewBox="0 0 239.78 58.48">
  <defs>
    <style>
      .cls-1, .cls-2 {
        fill: #8cc63f;
      }

      .cls-2 {
        font-family: RoundedMplus1c-Bold, 'Rounded Mplus 1c Bold';
        font-size: 30px;
        font-weight: 700;
      }
    </style>
  </defs>
  <g id="icon">
    <g id="_病院" data-name="病院">
      <g>
        <path class="cls-1" d="M6.34,47.04c-.6.66-1.04,1.43-1.29,2.2-.17.54-.26,1.08-.26,1.58,0,.31.03.6.1.88.05.21.12.4.21.58.07.14.15.27.25.38.14.18.32.33.54.43.21.11.45.16.7.16v-1.12c-.05,0-.09,0-.13-.02-.06-.02-.12-.05-.18-.1-.04-.04-.09-.1-.13-.17-.07-.11-.12-.25-.17-.43-.04-.18-.06-.38-.06-.61,0-.38.07-.8.21-1.24.13-.4.34-.82.61-1.22.41-.6.96-1.14,1.6-1.53.32-.19.66-.35,1.02-.46.36-.11.73-.17,1.12-.17.51,0,1.01.1,1.47.29.69.28,1.31.74,1.81,1.29.5.55.87,1.19,1.06,1.79.14.44.21.87.21,1.24,0,.23-.02.44-.07.62-.03.13-.07.25-.12.34-.04.07-.07.13-.11.18-.06.07-.11.11-.17.14-.06.03-.12.04-.2.04v1.12c.15,0,.29-.02.43-.06.24-.07.46-.19.63-.35.13-.12.24-.26.33-.41.14-.23.23-.48.3-.75.06-.27.09-.56.09-.86,0-.5-.08-1.04-.26-1.58-.17-.52-.42-1.03-.75-1.51-.49-.72-1.15-1.37-1.94-1.85-.39-.24-.82-.44-1.28-.57-.45-.14-.94-.21-1.44-.21-.67,0-1.3.14-1.88.37-.87.35-1.62.91-2.22,1.58Z"/>
        <path class="cls-1" d="M12.63,51.64c-.18.14-.29.36-.29.6v.9c0,.23.11.45.29.6.18.14.42.2.65.14l.6-.14v-2.1l-.6-.14c-.23-.05-.46,0-.65.14Z"/>
        <path class="cls-1" d="M7.62,51.49l-.6.14v2.1l.6.14c.23.05.46,0,.65-.14.18-.14.29-.36.29-.6v-.9c0-.23-.11-.45-.29-.6-.18-.14-.42-.2-.65-.14Z"/>
        <path class="cls-1" d="M45.5,49.06c-.23-.86-.55-1.63-.95-2.32-.7-1.2-1.63-2.14-2.65-2.88-.77-.56-1.59-1.01-2.43-1.4-1.25-.59-2.53-1.04-3.71-1.47-1.18-.44-2.26-.86-3.1-1.36-.31-.18-.58-.37-.82-.57-.36-.3-.64-.62-.84-.97-.2-.36-.34-.75-.39-1.26-.04-.36-.05-.69-.05-1.01,0-.94.14-1.76.32-2.6.53-.6,1.01-1.31,1.47-2.16.46-.85.89-1.85,1.33-3.03.28-.13.56-.28.83-.46.62-.42,1.22-1,1.71-1.78.49-.78.89-1.75,1.16-2.94.07-.33.11-.66.11-.99,0-.68-.16-1.33-.43-1.9-.19-.4-.42-.77-.7-1.1.14-.52.31-1.22.46-2.04.21-1.14.39-2.51.39-3.95,0-.93-.07-1.89-.26-2.84-.14-.71-.35-1.42-.64-2.09-.44-1.01-1.08-1.97-1.97-2.76-.82-.73-1.86-1.31-3.1-1.69-.44-.53-.88-.98-1.34-1.36-.39-.33-.79-.6-1.2-.83-.62-.34-1.26-.57-1.91-.71-.65-.14-1.32-.19-2.01-.19-.96,0-1.96.09-3.07.2-.42.04-.77.1-1.08.15-.46.08-.8.17-1.07.22-.14.03-.26.05-.37.06-.12.01-.23.02-.36.02-.17,0-.38-.01-.64-.05-.81-.12-1.55-.3-2.13-.48-.29-.09-.54-.17-.74-.25-.1-.04-.18-.07-.25-.1-.07-.03-.12-.06-.15-.07h0c-.09-.04-.17-.07-.25-.08-.08-.02-.14-.02-.2-.02-.12,0-.21.02-.28.04-.07.02-.12.04-.17.06-.09.04-.16.08-.24.12-.13.08-.26.17-.39.27-.23.18-.48.4-.75.66-.4.39-.84.86-1.23,1.37-.2.26-.38.52-.55.8-.17.28-.31.56-.43.86-.57,1.47-.94,2.83-1.18,4.09-.23,1.25-.32,2.4-.32,3.46,0,1.73.24,3.19.47,4.43,0,.06,0,.11,0,.17,0,.12.02.24.03.36.02.19.04.38.06.54,0,.08.02.15.02.21,0,.03,0,.05,0,.07v.02s0,0,0,0h0v.11l.23,1.01c-.33.36-.61.76-.83,1.2-.31.61-.49,1.3-.49,2.03,0,.32.04.65.11.98.18.8.42,1.49.7,2.1.42.91.96,1.62,1.56,2.15.46.41.96.71,1.44.94.43,1.18.87,2.18,1.33,3.03.46.85.94,1.56,1.47,2.16.18.84.32,1.66.32,2.6,0,.32-.02.65-.05,1.01-.04.34-.11.64-.22.91-.16.4-.4.74-.72,1.06-.32.32-.73.62-1.22.89-.49.28-1.07.54-1.69.79-1.09.44-2.34.86-3.6,1.36-.95.38-1.91.81-2.82,1.34-.69.4-1.35.87-1.95,1.42-.91.83-1.69,1.87-2.23,3.15C.3,49.06,0,50.58,0,52.37c0,.25.05.49.14.72.08.21.19.4.33.58.25.34.57.64.97.94.69.51,1.61.99,2.8,1.44,1.79.67,4.18,1.28,7.27,1.72,3.09.44,6.88.71,11.45.71,3.96,0,7.34-.21,10.18-.55,2.13-.26,3.96-.59,5.52-.97,1.17-.28,2.18-.6,3.04-.92.65-.25,1.22-.5,1.72-.77.37-.2.7-.4.99-.61.43-.32.79-.64,1.05-1.01.13-.18.24-.38.32-.59.08-.21.13-.44.13-.68,0-1.23-.14-2.33-.4-3.31ZM31.09,40.9l-5.73,8.95-.64-4.39,1.62-1.72-1.05-1.75,4.44-2.34c.12.16.25.31.39.45.29.3.62.57.96.81ZM14.63,9.95c5.16,1.15,15.26-1.04,15.26-1.04,0,0,.11,2.5,1.83,4.8.68.9,1.24,2.32,1.66,3.66-.11-.21-.38-.29-.77-.34-.89-.12-2.2-.2-3.68-.12-4.4.22-4.07.61-5.8.61s-1.4-.4-5.8-.61c-1.48-.07-2.8,0-3.68.12-.46.06-.75.15-.82.46-.02.12-.06.24-.22.31.49-1.82,1.84-4.14,2.02-7.84ZM32.54,20.15s-.02,2.55-1.73,3.41c-.58.3-1.32.46-2.06.46-.79,0-1.5-.18-2.08-.51-.63-.37-1.06-.92-1.27-1.63-.05-.17-.09-.33-.14-.49-.14-.49-.5-1.85.27-2.45.5-.39,2.05-.64,3.54-.64,1.35,0,2.73.18,3.13.61.27.28.37.77.34,1.26ZM20.98,21.38c-.05.16-.09.33-.14.49-.21.71-.64,1.26-1.27,1.63-.57.34-1.29.51-2.08.51-.74,0-1.47-.16-2.06-.46-1.72-.86-1.73-3.38-1.74-3.41-.03-.49.07-.98.33-1.26.41-.42,1.78-.61,3.13-.61,1.48,0,3.04.25,3.54.64.77.6.41,1.96.27,2.45ZM15.25,30.16c-.45-.83-.89-1.87-1.35-3.17l-.15-.42-.42-.16c-.29-.11-.58-.25-.85-.43-.41-.28-.8-.65-1.16-1.22-.36-.56-.68-1.32-.91-2.34-.04-.19-.06-.38-.06-.56,0-.41.1-.8.29-1.17.15-.31.37-.6.63-.86.44.66.8,1.19.93,1.32.25.25.38,0,.4-.46.16,1.05.65,2.78,2.26,3.63,2.31,1.23,5.77.77,6.94-1.97.53-1.24.54-2.44,1.34-2.44s.81,1.21,1.34,2.44c1.17,2.74,4.63,3.2,6.94,1.97,2.31-1.23,2.33-4.27,2.33-4.49,0-.11.11-.19.26-.21.19.83.3,1.39.3,1.39,0,0,.22-.42.55-.99.2.23.36.48.48.74.16.35.25.72.25,1.1,0,.18-.02.37-.06.56-.15.68-.35,1.25-.57,1.71-.33.7-.71,1.18-1.1,1.54-.4.35-.82.58-1.25.74l-.42.15-.15.42c-.46,1.3-.91,2.34-1.36,3.17-.45.83-.9,1.46-1.36,1.95l-.18.19-.06.26c-.21.95-.41,2.01-.41,3.26,0,.39.02.79.06,1.21.05.5.17.96.34,1.39,0,.02.02.04.02.06l-5.81,3.06-6.44-2.99c.2-.46.33-.97.39-1.52.04-.42.06-.82.06-1.21,0-1.25-.21-2.31-.41-3.26l-.06-.26-.18-.19c-.46-.49-.91-1.12-1.36-1.95ZM15.2,40.61c.34-.27.65-.57.92-.91l4.91,2.28-1.05,1.75,1.62,1.72-.6,4.13-6.27-8.64c.16-.11.31-.22.46-.34ZM43.99,52.37s-.01.05-.05.1c-.06.11-.21.29-.47.49-.22.18-.52.38-.89.58-.65.36-1.54.73-2.67,1.08-1.69.53-3.92,1.02-6.73,1.37-2.81.35-6.21.57-10.24.57s-7.2-.2-9.95-.53c-2.07-.25-3.82-.57-5.29-.93-1.1-.27-2.04-.56-2.82-.86-.59-.22-1.08-.45-1.49-.67-.31-.16-.57-.33-.77-.48-.31-.23-.52-.43-.61-.57-.05-.07-.08-.12-.09-.15,0-.01,0-.02,0-.02,0-1.07.12-1.99.33-2.78.18-.7.44-1.3.75-1.84.54-.94,1.25-1.67,2.09-2.29.63-.47,1.33-.86,2.08-1.22.84-.4,1.73-.74,2.62-1.07v1.93h1.34v-2.42c.85-.32,1.68-.65,2.46-1.04l9.9,13.64,8.65-13.51s.05.08.08.12c.36.58.61,1.21.78,1.93.17.71.24,1.51.24,2.4v5.07h-3.11v1.34h7.65v-1.34h-3.11v-5.07c0-1.3-.15-2.48-.52-3.56-.03-.09-.07-.19-.1-.28,1.04.41,2.14.78,3.2,1.2.91.36,1.79.75,2.59,1.22.6.35,1.16.74,1.66,1.19.75.68,1.36,1.47,1.79,2.5.44,1.02.7,2.28.7,3.87h0Z"/>
      </g>
    </g>
  </g>
  <g id="text">
    <text class="cls-2" transform="translate(59.78 44.44)"><tspan x="0" y="0">スタッフ紹介</tspan></text>
  </g>
</svg>