<?xml version="1.0" encoding="UTF-8"?>
<svg id="_レイヤー_2" data-name="レイヤー_2" xmlns="http://www.w3.org/2000/svg" viewBox="0 0 25.24 33.36">
  <defs>
    <style>
      .cls-1 {
        fill: #fff;
      }
    </style>
  </defs>
  <g id="icon">
    <g id="_電話アイコン" data-name="電話アイコン">
      <path class="cls-1" d="M2.31,1.03C0,2.53-.46,7.24.41,11.07c.68,2.98,2.13,6.99,4.58,10.76,2.3,3.55,5.51,6.73,7.96,8.57,3.14,2.36,7.62,3.86,9.94,2.36.48-.31,1.05-.84,1.57-1.39.91-.96,1.03-2.44.3-3.55l-.13-.2-3.43-5.28c-.25-.39-1.85-.03-2.66.43-.41.23-.81.61-1.15,1-.87.99-2.26,1.34-3.46.77-.06-.03-.12-.06-.19-.09-1.59-.73-3.38-2.99-4.81-5.05-.04-.06-.08-.12-.12-.18-1.3-2.15-2.63-4.7-2.65-6.45,0-.07,0-.14,0-.21-.02-1.32.85-2.45,2.12-2.84.49-.15,1-.36,1.38-.64.75-.55,1.73-1.87,1.47-2.26L7.71,1.53l-.13-.2C6.87.22,5.47-.28,4.22.16c-.71.25-1.43.56-1.91.87Z"/>
    </g>
  </g>
</svg>