<?xml version="1.0" encoding="UTF-8"?>
<svg id="_レイヤー_2" data-name="レイヤー_2" xmlns="http://www.w3.org/2000/svg" viewBox="0 0 60 60">
  <defs>
    <style>
      .cls-1 {
        fill: #fff;
      }

      .cls-2 {
        fill: #f8b62d;
      }
    </style>
  </defs>
  <g id="_レイヤー_1-2" data-name="レイヤー_1">
    <circle class="cls-1" cx="30" cy="30" r="30"/>
    <g>
      <path class="cls-2" d="M20.14,13.74v12.6h2.42v-10.18h17.07l-5.42,3.67c-.61.41-.98,1.11-.98,1.85v20.74h-10.66v-8.24h-2.42v10.66h13.08v5.14c0,.32.18.61.46.76.28.15.62.13.88-.05l8.64-5.85V13.74h-23.07Z"/>
      <path class="cls-2" d="M17.81,25.74c0-.13-.08-.26-.2-.31-.12-.06-.26-.04-.37.05l-5.65,4.78,5.65,4.78c.1.09.24.11.37.05.12-.06.2-.18.2-.31v-2.42h13.83s0-4.21,0-4.21h-13.83v-2.42Z"/>
    </g>
  </g>
</svg>