<?xml version="1.0" encoding="UTF-8"?>
<svg id="_レイヤー_2" data-name="レイヤー_2" xmlns="http://www.w3.org/2000/svg" viewBox="0 0 322.55 74.96">
  <defs>
    <style>
      .cls-1 {
        fill: none;
        stroke: #fff;
        stroke-miterlimit: 10;
        stroke-width: .5px;
      }

      .cls-2 {
        fill: #fff;
      }

      .cls-3 {
        fill: #f8b62d;
      }

      .cls-4 {
        fill: #f1ab3e;
      }
    </style>
  </defs>
  <g id="_x31_">
    <g>
      <g>
        <g>
          <path class="cls-2" d="M321.68,32.6c-1.41-3.16-4.41-5.65-8.59-7.25l-13.26-5.09c-3.55-1.36-5.72-2.25-7.82-3.17-.6,2.44-1.27,4.47-2.56,7.83l-9.99,26.04c-1.53,3.98-2.26,5.6-3.43,7.77l12.49,4.79c.62-2.49,1.31-4.57,2.67-8.12l2.59-6.75,3.5,1.34c1.31.5,2.19,1.12,2.81,1.97.98,1.38,1.07,2.14.97,7.79-.09,4.31-.22,6.1-.64,8.34l13.51,5.18c-.22-3.21-.32-5.7-.39-9.01q-.14-7.63-.25-8.51c-.29-3.01-.98-4.28-3.13-5.94,2.44.04,3.55-.09,4.99-.65,2.75-1.06,4.94-3.57,6.34-7.21,1.34-3.5,1.39-6.66.19-9.35ZM311.57,43.21l-2.11,2.07-.72-.73c-3.7,2.64-8.88,2.27-12.16-1.06-3.64-3.7-3.59-9.66.11-13.3,3.7-3.64,9.66-3.59,13.3.11,3.28,3.34,3.56,8.53.86,12.18l.72.73Z"/>
          <path class="cls-4" d="M309.99,30.3c-3.64-3.7-9.6-3.75-13.3-.11-3.7,3.64-3.75,9.6-.11,13.3,3.28,3.34,8.46,3.7,12.16,1.06l.72.73,2.11-2.07-.72-.73c2.7-3.65,2.42-8.84-.86-12.18ZM308.07,41.76c-2.69,2.64-7.01,2.61-9.65-.08-2.64-2.69-2.61-7.01.08-9.65,2.69-2.64,7.01-2.61,9.65.08,2.64,2.69,2.61,7.01-.08,9.65Z"/>
        </g>
        <path class="cls-4" d="M308.23,37.04c.22-2.24-1-4.37-2.99-5.35-.19-.09-.42-.01-.51.17-.09.19-.01.42.17.51h0c1.7.84,2.75,2.67,2.57,4.59-.02.21.13.39.34.41.21.02.39-.13.41-.34Z"/>
        <path class="cls-4" d="M319.92,50.46l-8.04-6.83-2.18,2.14,6.99,7.86c.63.84,1.79.72,2.84-.31,1.05-1.03,1.22-2.22.4-2.87Z"/>
      </g>
      <polygon class="cls-2" points="44.72 23.91 29.77 17.74 16.17 12.13 10.56 25.72 4.39 40.68 0 51.31 6.12 53.84 10.51 43.21 16.68 28.25 19.77 20.77 27.24 23.86 42.2 30.03 52.83 34.42 55.36 28.3 44.72 23.91"/>
      <path class="cls-3" d="M22.45,28.15l-8.83,21.39,8.41,20.24,5.91-2.46-.02-.06-.21-.5-5.98-14.38,18.35-7.63,5.98,14.38.21.5.02.06.53-.22h0s5.42-2.26,5.42-2.26l-8.42-20.24-21.39-8.83ZM20.21,48.25l5.4-12.27,12.51,4.83-17.91,7.45Z"/>
      <path class="cls-2" d="M31.11,53.84h1.66v3.22h-3.22v-1.66c0-.86.7-1.56,1.56-1.56Z" transform="translate(-18.9 16.21) rotate(-22.57)"/>
      <path class="cls-2" d="M34.01,51.99h1.66c.86,0,1.56.7,1.56,1.56v1.66h-3.22v-3.22h0Z" transform="translate(-17.84 17.78) rotate(-22.57)"/>
      <path class="cls-2" d="M35.66,55.95h3.22v1.66c0,.86-.7,1.56-1.56,1.56h-1.66v-3.22h0Z" transform="translate(-19.24 18.72) rotate(-22.57)"/>
      <path class="cls-2" d="M31.2,57.81h3.22v3.22h-1.66c-.86,0-1.56-.7-1.56-1.56v-1.66h0Z" transform="translate(-20.3 17.15) rotate(-22.57)"/>
      <g>
        <path class="cls-1" d="M100.53,62.25c1.71.38,12.32,7.13,17.95,12.46h188.6c-7.8-3.35-15.74-6.43-23.81-9.24,0,0,0,.02,0,.03l-2.34,5.77c-1.52,3.74-8.71,3.67-13.78.21-.81-.56-1.26-1.3-1.21-1.93.1-1.28-.43-2.69-1.42-4.06-1.73-2.4-3.49-5.17-2.74-6.78-16.36-4.6-33.17-8.1-50.37-10.39.42.66.37,1.19-.29,1.54l-3.51,1.86c-2.86,1.52-3.16,4.01-.75,6.18l2.95,2.65c5.39,4.84-3.21,9.41-12.56,6.67l-5.12-1.5c-4.18-1.22-8.94-1.02-11.8.5l-3.5,1.86c-5.33,2.83-3.48,3.64-16.46,1.1-3.54-.69-3.48-3.56-6.25-5l-.04-.02c-1.62-.84-3.66-1.41-5.78-1.62-2.97-.29-5.85-1.09-8.24-2.2,0,0-16.85-7.23-4.59-14.28-21.14,1.55-41.77,4.9-61.76,9.88-.02.03-.03.07-.05.1l.02.49c.03.68.48,1.28,1.13,1.5,13.4,4.65-5.08,9.78-10.39,8.76l-2.76-.55c-2.25-.45-4.53.6-5.65,2.6l-1.38,2.45c-2.51,4.47-9.27,3.11-9.87-1.98l-.33-2.79c-.08-.64-.28-1.24-.56-1.8-8.8,3.01-17.45,6.34-25.93,9.99h82.57c0-1.07-.28-2.3-.85-3.64-1.95-4.55-3.79-9.85.87-8.82ZM222.35,60.77l2.23.88c1.45.57,1.22,3.94-.3,6.44-.24.4-.55.64-.8.64-.51,0-1.08.31-1.66.82-1.35,1.22-2.98,2.48-3.21.74-.12-.94,2.18-10.13,3.74-9.52Z"/>
        <path class="cls-2" d="M44.76,69.31c.6,5.09,7.36,6.45,9.87,1.98l1.38-2.45c1.12-2,3.41-3.05,5.65-2.6l2.76.55c5.31,1.02,23.79-4.11,10.39-8.76-.65-.22-1.09-.82-1.13-1.5l-.02-.49s.03-.07.05-.1c-10.11,2.52-20.07,5.44-29.83,8.78.28.55.48,1.15.56,1.8l.33,2.79Z"/>
        <path class="cls-2" d="M140.07,60.34c2.39,1.12,5.27,1.91,8.24,2.2,2.11.21,4.15.78,5.78,1.62l.04.02c2.78,1.44,2.72,4.3,6.25,5,12.99,2.54,11.14,1.74,16.46-1.1l3.5-1.86c2.86-1.52,7.62-1.72,11.8-.5l5.12,1.5c9.34,2.73,17.95-1.84,12.56-6.67l-2.95-2.65c-2.41-2.16-2.11-4.66.75-6.18l3.51-1.86c.66-.36.71-.89.29-1.54-16-2.14-32.32-3.26-48.9-3.26-9.1,0-18.11.35-27.05,1-12.26,7.05,4.59,14.28,4.59,14.28Z"/>
        <path class="cls-2" d="M264.53,65.49c.99,1.37,1.52,2.78,1.42,4.06-.05.63.39,1.37,1.21,1.93,5.07,3.46,12.26,3.53,13.78-.21l2.34-5.77s0-.02,0-.03c-7.07-2.47-14.24-4.72-21.49-6.76-.75,1.61,1.01,4.39,2.74,6.78Z"/>
        <path class="cls-2" d="M100.53,62.25c-4.65-1.03-2.82,4.27-.87,8.82.57,1.34.86,2.57.85,3.64h17.96c-5.63-5.33-16.24-12.08-17.95-12.46Z"/>
        <path class="cls-2" d="M221.82,69.55c.57-.52,1.15-.82,1.66-.82.25,0,.56-.24.8-.64,1.52-2.5,1.75-5.87.3-6.44l-2.23-.88c-1.56-.61-3.85,8.58-3.74,9.52.22,1.74,1.85.47,3.21-.74Z"/>
      </g>
      <path class="cls-2" d="M215.92,12.9c-.53,1.68-.84,3.03-1.39,6.19l-3.6,20.83c-.51,2.93-.7,4.54-.76,6.29l-10.22-1.76c.52-1.64.89-3.3,1.39-6.19l3.6-20.83c.57-3.31.74-4.49.77-6.29l10.22,1.76Z"/>
      <path class="cls-2" d="M226.37,36.2c-.11,1.27,0,1.9.4,2.71.6,1.18,1.88,2.01,3.55,2.36,2.44.51,4.09-.19,4.45-1.94.22-1.05-.12-1.93-.97-2.51-.56-.4-2.06-1.16-4.97-2.5-3.84-1.74-4.81-2.31-6.05-3.54-2.34-2.35-3.24-5.57-2.51-9.06,1.34-6.39,7.23-9.2,15.56-7.45,3.18.67,6.27,2.12,8.02,3.79,1.45,1.36,2.44,3.02,2.96,4.99.26.9.35,1.81.39,3.56l-10.1-1.03c.04-.96-.06-1.47-.35-2.01-.47-.83-1.47-1.48-2.78-1.76-2.05-.43-3.64.21-3.94,1.64-.2.93.28,1.76,1.37,2.35.62.33,1.72.85,6.17,2.79,6.04,2.81,8.4,6.78,7.22,12.4-.83,3.95-3.19,6.73-6.73,7.97-2.27.78-5.99.8-9.59.05s-7.1-2.38-9-4.32c-1.47-1.48-2.39-3.25-2.74-5.43-.22-1.06-.2-2.14-.05-4.18l9.72,1.11Z"/>
      <path class="cls-2" d="M268.42,49.24c2.77.83,4.23,1.19,6.11,1.55l-2.53,8.41c-1.69-.71-3.22-1.26-6.02-2.1l-12.96-3.9c-3.26-.98-4.24-1.28-6.1-1.71.72-1.56,1.2-2.9,2.07-5.78l6.26-20.77c.8-2.65,1.17-4.15,1.49-6.04,1.75.65,2.69.94,5.99,1.93l12.51,3.77c2.35.71,4,1.12,6.18,1.57l-2.52,8.37c-1.76-.74-3.29-1.28-6.02-2.1l-9.06-2.73-1.28,4.24,7.39,2.23c2.43.73,4.04,1.13,6.26,1.6l-2.47,8.19c-1.76-.74-3.29-1.28-6.1-2.13l-7.43-2.24-1.43,4.74,9.66,2.91Z"/>
      <g>
        <path class="cls-2" d="M67.14,55.57c-.35-1.84-.87-3.71-1.65-6.12l-6.59-20.33c-.72-2.22-1.38-4-2.22-5.81,1.83-.51,3.46-1,6.06-1.84l8.47-2.75c7.91-2.56,13.56-.15,15.79,6.74,2.28,7.04-.95,12.87-8.55,15.34l-5.16,1.67,1.26,3.88c.77,2.37,1.54,4.37,2.3,6.08l-9.71,3.15ZM71.57,25.75c-2.25.73-3.48,3.14-2.75,5.39.73,2.25,3.14,3.48,5.39,2.75,2.25-.73,3.48-3.14,2.75-5.39-.73-2.25-3.14-3.48-5.39-2.75Z"/>
        <path class="cls-4" d="M75.75,29.86s-.05-.07-.06-.12c-.18-.8-.48-1.45-1.19-2.06s-1.42-.83-2.22-.89c-.06,0-.1-.02-.13-.05-.06-.05-.07-.13-.06-.21,0-.06.03-.11.06-.16.04-.05.11-.08.2-.07.94.07,1.69.32,2.47,1s1.13,1.37,1.34,2.29c.02.09,0,.16-.05.21-.04.04-.08.07-.13.08-.08.03-.16.02-.22-.03Z"/>
      </g>
      <g>
        <path class="cls-2" d="M98.04,49.43c-.22-1.86-.61-3.76-1.22-6.22l-5.14-20.74c-.56-2.27-1.1-4.09-1.8-5.96,1.86-.38,3.52-.75,6.18-1.41l8.64-2.14c8.07-2,13.53.81,15.27,7.84,1.78,7.18-1.85,12.77-9.61,14.7l-5.26,1.3.98,3.96c.6,2.42,1.23,4.47,1.87,6.22l-9.91,2.46ZM105.22,19.84c-2.29.57-3.69,2.89-3.12,5.18s2.89,3.69,5.18,3.12,3.69-2.89,3.12-5.18c-.57-2.29-2.89-3.69-5.18-3.12Z"/>
        <path class="cls-4" d="M108.81,24.39s-.05-.07-.06-.12c-.12-.81-.37-1.48-1.05-2.14s-1.35-.93-2.16-1.04c-.06-.01-.1-.03-.13-.06-.05-.05-.06-.13-.05-.21,0-.06.03-.11.07-.15.05-.05.12-.07.21-.06.94.14,1.66.44,2.4,1.17.73.73,1.03,1.44,1.17,2.38.01.09-.01.16-.06.21-.04.04-.09.06-.14.07-.08.02-.16,0-.22-.05Z"/>
      </g>
      <g>
        <path class="cls-2" d="M142.27,9.95c3.4-.24,6.27.52,8.25,2.24,1.69,1.47,2.68,3.66,2.87,6.5.21,2.96-.5,5.39-2.05,7.01-.81.85-1.54,1.3-3.23,2.05,2.02.45,2.89,1.11,4.06,3.09q.36.57,2.9,5.79c1.11,2.26,1.98,3.95,3.16,6.09l-10.98.77c-.43-1.68-.92-2.95-2.24-5.95-1.74-3.93-2.05-4.42-3.17-5.06-.7-.39-1.51-.53-2.57-.46l-2.84.2.38,5.49c.2,2.88.4,4.53.77,6.45l-10.15.71c.11-1.87.09-3.22-.13-6.46l-1.48-21.16c-.19-2.72-.38-4.34-.75-6.22,1.74-.04,3.52-.13,6.4-.33l10.78-.75ZM138.78,17.02c-2.36.16-4.13,2.21-3.97,4.56.16,2.36,2.21,4.13,4.56,3.97,2.36-.16,4.13-2.21,3.97-4.56-.16-2.36-2.21-4.13-4.56-3.97Z"/>
        <path class="cls-4" d="M141.65,22.41s-.03-.08-.03-.13c.02-.82-.11-1.52-.66-2.29-.55-.78-1.18-1.15-1.94-1.4-.06-.02-.09-.05-.12-.08-.04-.06-.04-.14-.01-.21.02-.06.05-.11.1-.14.05-.04.13-.05.21-.02.9.3,1.56.72,2.16,1.57.6.84.77,1.6.75,2.55,0,.09-.04.16-.1.2-.04.03-.09.05-.15.05-.08,0-.16-.02-.21-.08Z"/>
      </g>
      <g>
        <path class="cls-2" d="M172.76,39.35c-.42,1.37-.81,2.85-1.08,4.31l-11.07-.54c.57-1.16.88-1.86,2.06-4.81l9.62-23.98c.77-1.9,1.23-3.31,1.48-4.41l12.45.61c.18,1.2.54,2.68,1.08,4.53l7.26,24.81c.98,3.34,1.12,3.86,1.58,4.99l-11.07-.54c-.12-1.59-.37-2.99-.66-4.39l-.62-2.8-10.16-.5-.89,2.73ZM179.48,21.45c-2.36-.12-4.36,1.7-4.48,4.06-.12,2.36,1.7,4.36,4.06,4.48s4.36-1.7,4.48-4.06c.12-2.36-1.7-4.36-4.06-4.48Z"/>
        <path class="cls-4" d="M182.11,26.72s-.02-.08-.02-.13c.12-.81.07-1.52-.38-2.35-.46-.84-1.03-1.28-1.76-1.62-.05-.03-.09-.06-.11-.09-.04-.07-.02-.14.01-.21.02-.06.07-.1.11-.12.06-.03.13-.03.21,0,.86.4,1.46.9,1.96,1.81.49.91.58,1.68.44,2.62-.01.09-.06.15-.12.18-.05.03-.1.04-.15.03-.08,0-.16-.04-.2-.11Z"/>
      </g>
      <g>
        <path class="cls-2" d="M104.53,8.05c-.03-.12-.12-.3-.36-.68-.34-.54-.54-.67-.87-.62-.27.04-.55.09-.82.13.05.34.11.67.16,1.01.03.2.06.3.11.45-.11.02-.22.03-.33.05,0-.15,0-.26-.04-.46-.12-.74-.24-1.49-.35-2.23-.03-.17-.05-.29-.11-.46.15-.02.26-.03.45-.06.3-.05.61-.1.91-.14.61-.09.98.13,1.06.64.04.27-.01.48-.17.66-.11.12-.21.18-.42.27.17.02.3.12.5.39.16.22.28.39.44.65.11.18.17.26.25.35-.13.02-.26.04-.38.06ZM103.47,6.47c.2-.03.37-.13.48-.27.09-.13.13-.28.1-.46-.06-.38-.31-.54-.73-.48-.36.06-.71.11-1.07.17.06.4.13.8.19,1.2.35-.05.69-.11,1.04-.16Z"/>
        <path class="cls-2" d="M109.61,7.33c-.13,0-.24,0-.45.03-.41.06-.81.12-1.22.17-.19.03-.29.05-.44.08,0-.16,0-.29-.04-.49-.11-.74-.22-1.48-.32-2.23-.02-.17-.05-.28-.1-.46.15-.01.26-.02.45-.05.4-.06.79-.11,1.19-.17.18-.03.31-.05.45-.09.01.1.03.2.04.3-.14,0-.25,0-.46.04-.44.06-.88.13-1.32.19.05.38.11.75.16,1.13.38-.05.75-.11,1.13-.16.18-.03.29-.05.45-.09.01.1.03.2.04.3-.15,0-.25,0-.46.04-.38.05-.75.11-1.13.16.06.43.13.86.19,1.3.45-.07.9-.13,1.36-.19.18-.03.3-.05.45-.09.01.1.03.2.04.3Z"/>
        <path class="cls-2" d="M114.59,6.63c-.05-.14-.12-.28-.19-.41-.1-.18-.2-.35-.3-.53-.5.07-1.01.13-1.51.2-.05.2-.1.39-.15.59-.04.16-.07.3-.08.44-.12.02-.25.03-.37.05.07-.15.08-.2.16-.51.21-.8.43-1.61.65-2.41.05-.21.08-.31.08-.4.12-.02.23-.03.35-.05.02.07.05.12.19.37.42.72.83,1.44,1.25,2.16.14.24.21.35.29.45-.12.02-.25.03-.37.05ZM113.23,4.12s-.02-.04-.13-.27q-.05.25-.07.29c-.13.5-.25,1-.38,1.49.44-.06.88-.12,1.33-.17-.25-.45-.5-.9-.75-1.35Z"/>
        <path class="cls-2" d="M117.9,6.22c-.19.02-.29.04-.44.07,0-.15,0-.29-.03-.49-.09-.74-.18-1.48-.27-2.22-.02-.2-.05-.31-.09-.46.11-.01.22-.03.34-.04,0,.15,0,.26.02.47.1.82.2,1.63.3,2.45.46-.06.91-.11,1.37-.16.19-.02.29-.04.46-.08.01.1.02.2.04.3-.13,0-.24,0-.46.02-.41.05-.82.1-1.22.15Z"/>
        <path class="cls-2" d="M122.16,4.8c.04.2.08.31.18.42.16.18.44.26.76.22.52-.06.81-.34.77-.75-.02-.21-.12-.36-.3-.44-.15-.06-.21-.08-.71-.13-.28-.03-.43-.06-.58-.12-.29-.11-.45-.32-.48-.62-.06-.51.32-.9.97-.96.4-.04.74.05.95.28.11.11.16.21.22.41-.1.03-.19.05-.29.08-.05-.17-.1-.25-.19-.35-.16-.15-.39-.22-.68-.19-.46.05-.75.33-.71.69.03.23.17.38.44.45q.13.04.63.09c.68.07.97.29,1.02.76.06.58-.31.95-1.01,1.03-.46.05-.82-.06-1.04-.3-.12-.14-.18-.25-.24-.51.1-.03.2-.05.3-.08Z"/>
        <path class="cls-2" d="M128.02,4.67c.02.2.04.31.08.45-.11.01-.22.02-.33.03.01-.14,0-.26-.01-.46-.08-.82-.16-1.64-.24-2.47-.23.02-.46.04-.69.07-.21.02-.33.04-.46.08l-.03-.3c.14,0,.25,0,.47-.02.55-.05,1.1-.11,1.65-.16.23-.02.33-.04.47-.07,0,.1.02.2.03.3-.14,0-.25,0-.47.01-.23.02-.46.04-.69.07.08.82.16,1.64.24,2.47Z"/>
        <path class="cls-2" d="M134.06,4.59c-.05-.14-.11-.29-.17-.41-.09-.18-.18-.36-.28-.55-.51.04-1.01.08-1.52.13-.06.19-.12.39-.18.58-.05.16-.08.3-.1.44-.12.01-.25.02-.37.03.07-.15.09-.2.19-.5.25-.79.5-1.59.76-2.38.06-.21.09-.31.1-.4.12,0,.23-.02.35-.03.02.07.04.12.18.38.38.74.76,1.48,1.14,2.22.13.24.19.36.27.46-.12,0-.25.02-.37.03ZM132.81,2.02s-.02-.04-.12-.27q-.06.25-.08.29c-.15.49-.3.98-.44,1.48.44-.04.89-.08,1.33-.11-.23-.46-.46-.92-.69-1.38Z"/>
        <path class="cls-2" d="M138.04,3.83c.01.2.03.31.07.45-.11,0-.22.02-.33.02.02-.14.01-.26,0-.46-.06-.82-.12-1.65-.18-2.47-.23.02-.46.03-.69.05-.21.02-.33.03-.46.06,0-.1-.02-.2-.02-.3.14.01.25.01.47,0,.55-.04,1.1-.08,1.65-.12.23-.02.33-.03.47-.06,0,.1.01.2.02.3-.14-.01-.25-.01-.47,0-.23.02-.46.03-.69.05.06.82.12,1.65.18,2.47Z"/>
        <path class="cls-2" d="M143.86,3.94c-.13-.01-.24-.02-.46,0-.41.02-.82.05-1.22.07-.19.01-.29.02-.44.04.02-.16.02-.29,0-.49-.05-.75-.09-1.5-.14-2.24-.01-.17-.03-.29-.06-.46.15,0,.26,0,.45-.02.4-.02.8-.05,1.19-.07.18-.01.31-.03.46-.06,0,.1.01.2.02.3-.14-.01-.25-.02-.46,0-.44.03-.89.05-1.33.08.02.38.05.76.07,1.14.38-.02.76-.05,1.14-.07.18-.01.29-.03.46-.06,0,.1.01.2.02.3-.15-.01-.25-.02-.46,0-.38.02-.76.05-1.14.07.03.44.05.87.08,1.31.45-.03.91-.06,1.36-.08.18-.01.3-.03.45-.06,0,.1.01.2.02.3Z"/>
        <path class="cls-2" d="M151.56,3.54c-.02-.1-.07-.22-.16-.4-.31-.61-.62-1.22-.94-1.83-.08-.17-.14-.3-.27-.61.04.43.06.61.06.75.02.56.05,1.11.07,1.67,0,.2.02.32.05.46-.11,0-.22,0-.33.01.02-.15.02-.27.01-.47-.03-.75-.06-1.49-.1-2.24,0-.19-.02-.32-.05-.47.14,0,.28-.01.42-.02.04.13.09.26.16.39.4.78.8,1.56,1.19,2.34.33-.81.67-1.62,1.01-2.43.07-.16.11-.29.13-.4.14,0,.27,0,.41-.01-.02.15-.02.27-.02.47.03.75.05,1.49.08,2.24,0,.21.02.32.05.46-.11,0-.21,0-.32.01.02-.15.02-.28.01-.47-.02-.56-.04-1.12-.06-1.67,0-.16,0-.29,0-.76-.09.3-.15.45-.21.61-.27.64-.54,1.28-.8,1.92-.08.19-.12.3-.14.41-.08,0-.17,0-.25,0Z"/>
        <path class="cls-2" d="M158.46,3.32c-.04-.14-.09-.29-.15-.42-.08-.19-.16-.37-.24-.56-.51.01-1.01.03-1.52.04-.07.19-.14.38-.21.57-.06.15-.1.29-.12.43-.12,0-.25,0-.37.01.08-.15.1-.19.22-.49.3-.78.59-1.55.89-2.33.08-.2.11-.3.13-.39.12,0,.23,0,.35,0,.01.07.04.13.15.38.34.76.68,1.52,1.01,2.28.11.25.17.37.24.48-.12,0-.25,0-.37,0ZM157.37.68s-.02-.04-.11-.28q-.08.25-.1.29c-.18.48-.35.96-.53,1.45.45-.01.89-.02,1.33-.03-.2-.47-.4-.95-.61-1.42Z"/>
        <path class="cls-2" d="M163.48,3.23c-.06-.11-.11-.19-.22-.36-.46-.68-.93-1.35-1.39-2.02-.09-.13-.2-.3-.3-.47.02.32.03.52.03.65,0,.59.02,1.17.03,1.76,0,.21.01.33.04.47-.11,0-.22,0-.33,0,.02-.14.03-.27.03-.47-.01-.75-.02-1.5-.04-2.25,0-.19-.01-.31-.04-.46.13,0,.26,0,.39,0,.04.09.09.18.21.36.47.67.93,1.35,1.4,2.02.09.13.15.21.32.49-.02-.32-.03-.57-.03-.65,0-.6-.01-1.19-.02-1.79,0-.19-.01-.32-.04-.46.11,0,.23,0,.34,0-.02.14-.03.26-.03.46,0,.75.02,1.5.02,2.26,0,.21.01.33.04.46-.13,0-.27,0-.4,0Z"/>
        <path class="cls-2" d="M169.01,3.21c-.03-.14-.08-.3-.14-.43-.08-.19-.15-.38-.23-.57-.51,0-1.01,0-1.52,0-.08.19-.15.38-.23.57-.06.15-.1.29-.13.43-.12,0-.25,0-.37,0,.08-.14.11-.19.23-.48.32-.77.63-1.54.95-2.31.08-.2.12-.3.14-.39.12,0,.23,0,.35,0,.01.07.03.13.15.39.32.77.64,1.54.96,2.3.11.25.16.37.23.48-.12,0-.25,0-.37,0ZM167.98.54s-.02-.04-.1-.28q-.09.25-.1.28c-.19.48-.38.96-.56,1.43.45,0,.89,0,1.34,0-.19-.48-.38-.96-.57-1.43Z"/>
        <path class="cls-2" d="M173.9,1.92c-.23,0-.31,0-.44.02,0-.1,0-.19,0-.29.14.02.24.03.45.03.03,0,.07,0,.1,0,.19,0,.3,0,.44,0-.02.16-.03.27-.04.46,0,.12,0,.25,0,.37,0,.19,0,.28.02.45-.24.14-.36.2-.54.25-.19.05-.43.08-.65.08-.37,0-.67-.1-.9-.28-.35-.29-.55-.78-.54-1.37,0-1.01.58-1.65,1.48-1.64.37,0,.66.11.88.31.13.13.21.25.3.48-.09.03-.18.06-.27.09-.15-.43-.46-.64-.93-.65-.32,0-.59.09-.79.29-.25.25-.39.64-.39,1.11,0,.57.19,1.02.55,1.25.16.1.39.16.63.16.34,0,.62-.07.89-.24,0-.3,0-.59.01-.89-.09,0-.17,0-.26,0Z"/>
        <path class="cls-2" d="M179.29,3.38c-.13-.02-.24-.04-.45-.04-.41-.01-.82-.02-1.22-.03-.19,0-.29,0-.45,0,.03-.16.04-.29.04-.49.02-.75.03-1.5.05-2.25,0-.17,0-.29-.02-.47.15.01.26.02.45.02.4,0,.8.02,1.2.03.18,0,.31,0,.46-.02,0,.1,0,.2,0,.3-.14-.02-.25-.04-.46-.04-.44-.01-.89-.02-1.33-.03,0,.38-.02.76-.03,1.14.38,0,.76.02,1.14.03.18,0,.29,0,.46-.02,0,.1,0,.2,0,.3-.14-.03-.25-.04-.46-.04-.38,0-.76-.02-1.14-.03,0,.44-.02.87-.03,1.31.46.01.91.02,1.37.03.18,0,.3,0,.46-.02,0,.1,0,.2,0,.3Z"/>
        <path class="cls-2" d="M183.47,3.49c-.01-.1-.05-.22-.13-.42-.26-.63-.53-1.27-.8-1.9-.07-.18-.12-.31-.23-.63,0,.44,0,.61,0,.76-.02.56-.04,1.12-.06,1.67,0,.2,0,.32.02.47-.11,0-.22,0-.33-.01.03-.15.04-.27.05-.46.02-.75.05-1.49.07-2.24,0-.19,0-.32-.02-.47.14,0,.28,0,.42.01.03.13.07.27.13.4.34.81.68,1.62,1.01,2.43.39-.78.79-1.56,1.19-2.34.08-.16.13-.28.16-.39.14,0,.27.01.41.02-.03.15-.05.27-.05.47-.03.75-.06,1.49-.09,2.24,0,.21,0,.32.02.47-.11,0-.21,0-.32-.01.03-.15.04-.28.05-.46.02-.56.04-1.12.07-1.67,0-.16.02-.29.06-.76-.11.29-.18.44-.26.59-.32.62-.63,1.23-.94,1.85-.1.19-.14.29-.17.4-.08,0-.17,0-.25,0Z"/>
        <path class="cls-2" d="M190.15,3.81c-.13-.03-.24-.04-.45-.05-.41-.02-.82-.04-1.22-.06-.19,0-.29-.01-.45,0,.03-.16.05-.29.06-.48.04-.75.07-1.5.11-2.25,0-.17,0-.29-.01-.47.15.02.26.02.45.03.4.02.8.04,1.19.06.18,0,.31,0,.46,0,0,.1-.01.2-.02.3-.14-.03-.25-.04-.46-.05-.44-.02-.89-.04-1.33-.07-.02.38-.04.76-.05,1.14.38.02.76.04,1.14.06.18,0,.29,0,.46,0,0,.1-.01.2-.02.3-.14-.03-.25-.04-.46-.05-.38-.02-.76-.04-1.14-.06-.02.44-.04.87-.06,1.31.45.02.91.04,1.36.07.18,0,.3,0,.46,0,0,.1-.01.2-.02.3Z"/>
        <path class="cls-2" d="M194.95,4.06c-.05-.12-.09-.2-.19-.38-.41-.71-.82-1.42-1.24-2.12-.08-.14-.17-.31-.26-.49,0,.33,0,.52-.02.65-.03.59-.07,1.17-.1,1.76-.01.21-.01.33,0,.47-.11,0-.22-.01-.33-.02.03-.14.05-.26.06-.47l.13-2.24c.01-.19,0-.31,0-.46.13,0,.26.02.39.02.03.09.07.19.19.38.42.71.83,1.41,1.24,2.12.08.14.13.22.28.51,0-.32.01-.58.02-.65.04-.59.08-1.19.11-1.78.01-.19.01-.32,0-.46.11,0,.22.01.34.02-.03.14-.05.26-.06.46-.05.75-.1,1.5-.15,2.25-.01.21-.01.33,0,.46-.13,0-.27-.02-.4-.03Z"/>
        <path class="cls-2" d="M199.3,3.9c-.01.2-.01.31,0,.46-.11,0-.22-.02-.33-.02.04-.13.05-.26.07-.45.06-.82.12-1.65.18-2.47-.23-.02-.46-.03-.69-.05-.21-.01-.33-.01-.47,0,0-.1.01-.2.02-.3.13.03.24.05.46.06.55.04,1.1.08,1.65.12.23.02.33.02.47,0,0,.1-.02.2-.02.3-.13-.03-.25-.05-.47-.07-.23-.02-.46-.03-.69-.05-.06.82-.12,1.65-.18,2.47Z"/>
        <path class="cls-2" d="M206.74,4.05c0,.21.02.32.1.45.13.21.38.34.7.37.52.05.87-.17.91-.58.02-.21-.05-.38-.21-.49-.14-.09-.19-.12-.67-.27-.27-.08-.41-.15-.55-.23-.26-.17-.38-.41-.35-.7.05-.51.49-.81,1.14-.75.4.04.71.2.87.47.08.13.11.24.14.45-.1,0-.2.01-.3.02-.01-.18-.04-.27-.12-.38-.12-.18-.34-.29-.63-.32-.46-.04-.8.18-.83.53-.02.23.09.41.34.53q.12.06.6.21c.65.2.89.48.85.95-.06.58-.49.87-1.19.8-.46-.04-.79-.22-.96-.5-.09-.16-.12-.28-.14-.55.1,0,.21,0,.31-.01Z"/>
        <path class="cls-2" d="M212.23,5.52c.04-.14.06-.26.08-.45.03-.29.06-.59.09-.88-.27-.53-.54-1.05-.82-1.58-.09-.18-.15-.28-.21-.37.13.01.26.03.39.04.02.1.05.17.17.4.21.43.42.85.63,1.28.3-.37.59-.75.89-1.12.15-.18.2-.26.25-.36.13.01.26.03.4.04-.07.06-.14.14-.29.32-.38.46-.75.92-1.13,1.38-.03.29-.06.58-.09.87-.02.2-.02.3-.01.46-.12-.01-.23-.02-.35-.04Z"/>
        <path class="cls-2" d="M216.57,5.07c-.01.21.01.32.09.45.12.21.37.35.69.39.52.06.87-.15.92-.56.03-.21-.04-.38-.2-.5-.13-.1-.19-.12-.67-.28-.26-.09-.41-.15-.54-.24-.25-.17-.37-.42-.33-.71.06-.51.51-.8,1.16-.73.4.05.71.22.86.49.08.13.11.24.13.45-.1,0-.2,0-.3.01,0-.18-.04-.27-.11-.38-.12-.18-.33-.3-.62-.33-.46-.05-.81.16-.85.51-.03.23.08.41.33.54q.12.06.59.22c.64.22.88.5.82.97-.07.57-.51.86-1.21.77-.46-.05-.79-.24-.95-.52-.09-.16-.12-.29-.13-.55.1,0,.21,0,.31,0Z"/>
        <path class="cls-2" d="M222.32,6.25c-.03.2-.03.31-.02.46-.11-.01-.22-.03-.33-.04.04-.13.07-.26.09-.45.11-.82.21-1.64.32-2.46-.23-.03-.46-.06-.69-.09-.21-.03-.33-.03-.47-.03.01-.1.03-.2.04-.3.13.04.24.06.46.09.55.07,1.1.14,1.64.21.23.03.33.04.47.03-.01.1-.03.2-.04.3-.13-.04-.25-.06-.46-.09-.23-.03-.46-.06-.69-.09-.11.82-.21,1.64-.32,2.46Z"/>
        <path class="cls-2" d="M228,7.52c-.13-.04-.23-.06-.45-.09-.41-.06-.81-.12-1.22-.17-.19-.03-.29-.04-.44-.05.05-.15.07-.28.1-.48.1-.74.21-1.48.31-2.23.02-.17.03-.29.03-.47.15.03.25.05.44.07.4.06.79.11,1.19.17.18.03.31.04.46.04-.01.1-.03.2-.04.3-.14-.04-.25-.07-.45-.1-.44-.06-.88-.12-1.32-.19-.05.38-.11.75-.16,1.13.38.05.75.11,1.13.16.18.03.29.03.46.04-.01.1-.03.2-.04.3-.14-.04-.24-.06-.45-.09-.38-.05-.75-.11-1.13-.16-.06.43-.12.87-.18,1.3.45.06.9.13,1.36.19.18.03.3.03.46.04-.01.1-.03.2-.04.3Z"/>
        <path class="cls-2" d="M232.16,8.11c0-.1-.03-.23-.08-.43-.19-.66-.38-1.32-.57-1.98-.05-.18-.08-.32-.15-.65-.04.43-.06.61-.08.75-.08.55-.17,1.1-.25,1.66-.03.2-.04.32-.04.46-.11-.02-.22-.03-.33-.05.05-.14.07-.26.1-.45.11-.74.22-1.48.33-2.22.03-.19.04-.32.04-.47.14.02.28.04.42.06.01.13.04.27.08.41.24.84.49,1.68.73,2.53.48-.73.97-1.46,1.46-2.19.1-.15.16-.26.21-.37.14.02.27.04.41.06-.05.15-.08.26-.11.46-.12.74-.23,1.48-.35,2.21-.03.2-.04.31-.04.46-.11-.02-.21-.03-.32-.05.04-.14.07-.28.1-.45.09-.55.17-1.1.26-1.65.02-.15.05-.28.14-.74-.15.27-.23.41-.33.56-.39.58-.77,1.15-1.15,1.73-.12.17-.17.27-.21.38-.08-.01-.17-.03-.25-.04Z"/>
      </g>
    </g>
  </g>
</svg>