<?xml version="1.0" encoding="UTF-8"?>
<svg id="_レイヤー_2" data-name="レイヤー_2" xmlns="http://www.w3.org/2000/svg" viewBox="0 0 142.5 47.21">
  <defs>
    <style>
      .cls-1 {
        font-family: TsukuARdGothic-Bold-83pv-RKSJ-H, 'Tsukushi A Round Gothic';
        font-size: 31px;
        font-weight: 700;
      }

      .cls-1, .cls-2 {
        fill: #fff;
      }
    </style>
  </defs>
  <g id="_x31_">
    <path class="cls-2" d="M136.19,6.52c-3.93-.53-7.5,2.23-7.97,6.15-.47,3.92,2.33,7.53,6.26,8.05,3.93.53,7.5-2.23,7.97-6.15.47-3.92-2.33-7.53-6.26-8.05Z"/>
    <text class="cls-1" transform="translate(6.71 27.28)"><tspan x="0" y="0">Sumika</tspan></text>
    <path class="cls-2" d="M1.5,47.21c-.46,0-.92-.21-1.22-.62-.49-.67-.34-1.61.33-2.09.29-.21,29.07-20.63,66.19-10.86,18.56,4.89,32.95,1.52,41.74-2.17,9.56-4.01,14.79-9.25,14.84-9.3.58-.59,1.53-.6,2.12-.02.59.58.6,1.53.02,2.12-.22.22-22.22,22.08-59.49,12.26C30.28,27.11,2.65,46.72,2.38,46.92c-.27.19-.57.29-.88.29Z"/>
    <path class="cls-2" d="M124.48,34.97c-.48,0-.94-.23-1.23-.65l-9-13c-.47-.68-.3-1.62.38-2.09.68-.47,1.62-.3,2.09.38l9,13c.47.68.3,1.62-.38,2.09-.26.18-.56.27-.85.27Z"/>
  </g>
</svg>